<svg width="32" height="41" viewBox="0 0 32 41" fill="none" xmlns="http://www.w3.org/2000/svg">
<circle cx="27.1429" cy="24.2143" r="3.92857" fill="#FE6B00"/>
<path d="M26.4513 17.1156C26.4513 14.4998 25.6756 11.9427 24.2224 9.76777C22.7691 7.59282 20.7036 5.89765 18.2869 4.89664C15.8702 3.89562 13.211 3.6337 10.6455 4.14402C8.07994 4.65433 5.72335 5.91396 3.87371 7.7636C2.02406 9.61324 0.764442 11.9698 0.254127 14.5354C-0.256188 17.1009 0.00572454 19.7601 1.00674 22.1768C2.00776 24.5935 3.70293 26.659 5.87788 28.1123C8.05283 29.5655 10.6099 30.3412 13.2257 30.3412L13.2257 23.665C11.9303 23.665 10.664 23.2809 9.58697 22.5612C8.50992 21.8416 7.67046 20.8187 7.17475 19.6219C6.67903 18.4252 6.54933 17.1083 6.80205 15.8378C7.05476 14.5673 7.67853 13.4003 8.59449 12.4844C9.51045 11.5684 10.6775 10.9447 11.9479 10.6919C13.2184 10.4392 14.5353 10.5689 15.732 11.0646C16.9288 11.5604 17.9517 12.3998 18.6713 13.4769C19.391 14.5539 19.7751 15.8202 19.7751 17.1156H26.4513Z" fill="#201E1E"/>
<rect x="24.3767" width="5.70519" height="17.1156" fill="#201E1E"/>
<rect x="10.373" y="23.5988" width="5.70519" height="17.1156" fill="#201E1E"/>
</svg>
