<svg width="50" height="50" viewBox="0 0 50 50" fill="none" xmlns="http://www.w3.org/2000/svg">
<rect x="0.5" y="0.5" width="49" height="49" rx="8.20714" fill="white" stroke="#121212"/>
<circle cx="36.1429" cy="29.2143" r="3.92857" fill="#FE6B00"/>
<path d="M35.4513 22.1156C35.4513 19.4998 34.6756 16.9427 33.2224 14.7678C31.7691 12.5928 29.7036 10.8977 27.2869 9.89664C24.8702 8.89562 22.211 8.6337 19.6455 9.14402C17.0799 9.65433 14.7233 10.914 12.8737 12.7636C11.0241 14.6132 9.76444 16.9698 9.25413 19.5354C8.74381 22.1009 9.00572 24.7601 10.0067 27.1768C11.0078 29.5935 12.7029 31.659 14.8779 33.1123C17.0528 34.5655 19.6099 35.3412 22.2257 35.3412V28.665C20.9303 28.665 19.664 28.2809 18.587 27.5612C17.5099 26.8416 16.6705 25.8187 16.1747 24.6219C15.679 23.4252 15.5493 22.1083 15.802 20.8378C16.0548 19.5673 16.6785 18.4003 17.5945 17.4844C18.5105 16.5684 19.6775 15.9447 20.9479 15.6919C22.2184 15.4392 23.5353 15.5689 24.732 16.0646C25.9288 16.5604 26.9517 17.3998 27.6713 18.4769C28.391 19.5539 28.7751 20.8202 28.7751 22.1156H35.4513Z" fill="#201E1E"/>
<rect x="33.3767" y="5" width="5.70519" height="17.1156" fill="#201E1E"/>
<rect x="19.373" y="28.5988" width="5.70519" height="17.1156" fill="#201E1E"/>
</svg>
