<svg width="638" height="276" viewBox="0 0 638 276" fill="none" xmlns="http://www.w3.org/2000/svg">
<path d="M0 122.448L258.328 0L533 38.9786L619 159.5L633.5 276H0V122.448Z" fill="#FF9E45"/>
<path d="M-29 128.011L242.989 10L532.185 47.5663L622.733 163.721L638 276H-29V128.011Z" fill="#F5841B"/>
<path d="M-14 122.448L123.587 60H441.213L595.717 159.5L610 276H-14V122.448Z" fill="#D0690A"/>
<path d="M174 138.582L351.792 29L540.832 63.883L600.021 171.741L610 276H174V138.582Z" fill="#834409"/>
<path fill-rule="evenodd" clip-rule="evenodd" d="M502.967 136.691C498.793 133.108 495.679 128.488 495.37 122.946C494.478 106.978 518.521 107.755 524.158 115.219C529.796 122.683 531.914 143.013 526.173 145.122C523.883 145.963 518.662 145.145 513.156 142.846L519.17 163.749L500.169 165.929L502.967 136.691Z" fill="#915B3C"/>
<path fill-rule="evenodd" clip-rule="evenodd" d="M512.118 107.252C509.564 107.156 502.786 107.665 501.543 107.808C500.748 107.899 499.909 108.168 499.349 107.54C498.89 107.026 498.907 106.065 498.707 105.431C498.475 104.693 498.187 103.972 497.898 103.253C497.075 101.207 495.986 99.2956 494.583 97.5446C491.951 94.2595 488.411 91.8558 484.19 90.7051C479.529 89.4346 474.465 89.6022 469.75 90.5093C464.704 91.48 460.297 93.5813 455.68 95.6128C451.28 97.5486 446.55 98.6546 441.664 98.5164C436.74 98.3772 432.768 96.3489 428.387 94.4939C423.902 92.5947 418.929 91.5866 414.044 92.51C409.483 93.3721 405.473 95.6354 401.978 98.4453C398.707 101.074 396.119 104.083 394.954 108.033C393.7 112.282 394.285 116.721 397.69 119.958C402.626 124.651 410.701 125.085 417.256 124.197C421.047 123.684 424.695 122.608 428.129 121.016C432.709 118.894 436.494 115.753 440.688 113.076C442.656 111.82 444.718 110.737 446.916 109.876C449.049 109.039 451.19 108.522 453.354 109.54C455.644 110.616 457.71 111.695 460.239 112.243C462.666 112.769 465.184 112.93 467.656 112.628C472.465 112.041 477.027 110.095 481.579 108.619C485.291 107.417 489.27 106.186 493.254 106.475C494.917 106.596 497.369 106.959 498.162 108.466C488.521 111.268 486.146 123.106 490.025 131.152C492.118 135.495 501.83 139.738 505.025 136.962C507.048 135.203 505.44 133.384 504.396 132.181C502.397 129.877 501.404 126.737 504.268 124.645C506.739 122.84 510.012 126.077 510.064 126.067C510.791 125.929 516.686 121.854 520.41 116.467C524.747 116.212 525.052 113.484 523.738 111.432C522.425 109.38 515.648 107.386 512.118 107.252Z" fill="#191847"/>
<path fill-rule="evenodd" clip-rule="evenodd" d="M506.674 226.867L535.893 320.947L549.635 391.584H563.429L549.66 226.867H506.674Z" fill="#784931"/>
<path fill-rule="evenodd" clip-rule="evenodd" d="M493.543 226.867C495.582 275.741 494.778 302.399 494.321 306.839C493.865 311.279 491.275 341.018 473.623 393.075H487.969C511.346 343.136 519.507 313.397 522.188 306.839C524.87 300.281 532.788 273.624 544.349 226.867H493.543Z" fill="#915B3C"/>
<path fill-rule="evenodd" clip-rule="evenodd" d="M506.047 226.867C513.647 259.24 526.792 310.916 545.482 381.895H565.657C567.147 309.042 560.808 261.093 549.83 226.867H506.047Z" fill="#69A1AC"/>
<path fill-rule="evenodd" clip-rule="evenodd" d="M493.441 226.867C495.438 275.741 490.263 323.892 474.234 382.656H495.76C519.18 333.462 535.966 285.549 547.438 226.867H493.441Z" fill="#C5CFD6"/>
<path fill-rule="evenodd" clip-rule="evenodd" d="M572.544 209.947L600.845 223.012C607.965 223.606 614.045 224.802 619.086 226.601C620.336 227.341 621.988 228.983 617.461 229.398C612.933 229.813 608.191 230.44 607.843 231.965C607.496 233.491 610.52 234.748 609.637 236.874C609.048 238.291 604.518 235.727 596.047 229.18L569.419 223.654L572.544 209.947ZM476.45 226.392L492.877 223.747C488.511 255.991 486.1 273.115 485.645 275.119C484.622 279.628 489.678 285.404 491.973 288.578C487.039 291.701 486.044 283.311 479.84 287.363C474.178 291.061 470.402 296.692 462.5 293.758C461.529 293.397 460.209 291.653 462.249 289.784C467.33 285.129 474.436 277.275 475.158 274.957C476.144 271.795 476.575 255.606 476.45 226.392Z" fill="#915B3C"/>
<path fill-rule="evenodd" clip-rule="evenodd" d="M510.955 154.342L517.542 152.135C546.583 168.325 564.309 205.702 599.108 221.315L593.298 231.152C538.536 233.782 516.257 188.3 510.955 154.342Z" fill="#1F28CF"/>
<path fill-rule="evenodd" clip-rule="evenodd" d="M496.396 238.984L556.498 229.081C559.244 228.629 558.027 225.008 557.277 223.204C548.623 202.379 526.348 182.064 520.551 151.345L502.736 151.661C492.463 175.573 492.511 202.921 496.396 238.984Z" fill="#DDE3E9"/>
<path fill-rule="evenodd" clip-rule="evenodd" d="M485.086 176.41C482.441 176.148 480.149 174.899 478.212 172.663C469.859 163.024 471.038 156.765 477.444 153.715C483.851 150.666 490.641 153.654 501.43 151.876C502.017 151.78 502.561 151.725 503.062 151.714L508.544 151.109C533.42 197.854 543.923 230.046 540.052 247.684L492.747 255.478C491.097 262.047 489.384 267.627 487.61 272.218L474.72 274.342C466.591 237.891 470.046 205.247 485.086 176.41Z" fill="#2B44FF"/>
<path fill-rule="evenodd" clip-rule="evenodd" d="M498.269 228.456C501.952 239.842 505.963 247.885 510.302 252.586L492.747 255.478C494.672 247.816 496.513 238.809 498.269 228.456Z" fill="black" fill-opacity="0.1"/>
<path d="M175 135L230 102L187 276H175V135Z" fill="#6D3705"/>
</svg>
